<svg xmlns="http://www.w3.org/2000/svg" viewBox="0 0 32 32">
  <!-- Forest green rounded square background -->
  <rect width="32" height="32" rx="8" fill="#1b3a2a"/>
  <!-- Leaf mark in gold, scaled to fit 32x32 (original 24x24 path scaled ~1.1x, centered) -->
  <g transform="translate(5.5, 4.5) scale(0.875)">
    <path
      d="M17 8C8 10 5.9 16.17 3.82 21.34L5.71 22l1-2.3A4.49 4.49 0 0 0 8 20C19 20 22 3 22 3c-1 2-8 2-13 6 0-4 5-8 12-9C21 0 14 0 11 4c-2 3-4 7-4 11a8 8 0 0 0 4 7c2-5 5-10 6-14z"
      fill="#c9a24a"
    />
  </g>
</svg>
